<?xml version="1.0" encoding="UTF-8" standalone="no"?>
<svg
xmlns="http://www.w3.org/2000/svg"
version="1.0"
width="1600" height="1600"
id="3-cube_t2.svg">
<g style="stroke:#000000;stroke-width:10.0;stroke-opacity:0.50;">
<line x1="1155.720" y1="183.875" x2="1511.440" y2="800.000"/>
<line x1="1155.720" y1="183.875" x2="88.560" y2="800.000"/>
<line x1="1155.720" y1="183.875" x2="1155.720" y2="1416.125"/>
<line x1="1155.720" y1="183.875" x2="444.280" y2="183.875"/>
<line x1="444.280" y1="1416.125" x2="1511.440" y2="800.000"/>
<line x1="444.280" y1="1416.125" x2="88.560" y2="800.000"/>
<line x1="444.280" y1="1416.125" x2="1155.720" y2="1416.125"/>
<line x1="444.280" y1="1416.125" x2="444.280" y2="183.875"/>
<line x1="1511.440" y1="800.000" x2="1155.720" y2="1416.125"/>
<line x1="1511.440" y1="800.000" x2="444.280" y2="183.875"/>
<line x1="88.560" y1="800.000" x2="1155.720" y2="1416.125"/>
<line x1="88.560" y1="800.000" x2="444.280" y2="183.875"/>
</g>
<g style="stroke:#000000;stroke-width:5.0;fill:#ff0000">
<circle cx="1155.720" cy="183.875" r="51.1"/>
<circle cx="444.280" cy="1416.125" r="51.1"/>
<circle cx="1511.440" cy="800.000" r="51.1"/>
<circle cx="88.560" cy="800.000" r="51.1"/>
<circle cx="1155.720" cy="1416.125" r="51.1"/>
<circle cx="444.280" cy="183.875" r="51.1"/>
</g>
</svg>
