<?xml version="1.0" encoding="UTF-8" standalone="no"?>

<svg
   xmlns:dc="http://purl.org/dc/elements/1.1/"
   xmlns:svg="http://www.w3.org/2000/svg"
   xmlns="http://www.w3.org/2000/svg"
   version="1.1"
   width="992.34998"
   height="911.29688"
   id="svg2">
  <g
     transform="translate(-1.7041316,-55.005323)"
     id="layer2">
    <path
       d="m -275.60225,138.93827 125.60817,116.54733 62.60105,159.50486 -12.80496,170.8705 -85.67481,148.39313 -141.57569,96.52468 -169.43579,25.53835 -163.73704,-50.50618 -125.60817,-116.54734 -62.60105,-159.50486 12.80496,-170.87049 85.67481,-148.39313 141.57569,-96.52469 169.43579,-25.538341 z"
       transform="matrix(0.97445691,0.13935915,-0.13935915,0.97445691,1004.7925,113.72564)"
       id="path3771-8"
       style="fill:none;stroke:#000000;stroke-width:2.29999995;stroke-linejoin:round;stroke-miterlimit:4;stroke-opacity:1;stroke-dasharray:none;stroke-dashoffset:0" />
  </g>
  <g
     transform="translate(-1.7041316,-55.005323)"
     id="layer3">
    <path
       d="M 569.75061,145.08869 149.52793,692.82724"
       id="path3831"
       style="fill:none;stroke:#000000;stroke-width:1.96874297;stroke-linecap:butt;stroke-linejoin:miter;stroke-miterlimit:4;stroke-opacity:1;stroke-dasharray:none" />
    <path
       d="M 720.45116,220.43897 569.75061,876.85579"
       id="path3847"
       style="fill:none;stroke:#000000;stroke-width:1.96874297;stroke-linecap:butt;stroke-linejoin:miter;stroke-miterlimit:4;stroke-opacity:1;stroke-dasharray:none" />
    <path
       d="M 824.78231,671.09158 381.37492,142.1906"
       id="path3863"
       style="fill:none;stroke:#000000;stroke-width:1.96874297;stroke-linecap:butt;stroke-linejoin:miter;stroke-miterlimit:4;stroke-opacity:1;stroke-dasharray:none" />
    <path
       d="M 384.273,872.50866 245.1648,213.19375"
       id="path3871"
       style="fill:none;stroke:#000000;stroke-width:1.96874297;stroke-linecap:butt;stroke-linejoin:miter;stroke-miterlimit:4;stroke-opacity:1;stroke-dasharray:none" />
    <path
       d="M 253.85907,811.64882 849.41605,529.08529"
       id="path3879"
       style="fill:none;stroke:#000000;stroke-width:1.96874297;stroke-linecap:butt;stroke-linejoin:miter;stroke-miterlimit:4;stroke-opacity:1;stroke-dasharray:none" />
    <path
       d="M 716.10403,804.4036 113.30182,527.63624"
       id="path3881"
       style="fill:none;stroke:#000000;stroke-width:1.96874297;stroke-linecap:butt;stroke-linejoin:miter;stroke-miterlimit:4;stroke-opacity:1;stroke-dasharray:none" />
    <path
       d="m 143.73175,340.7096 676.70343,0"
       id="path3893"
       style="fill:none;stroke:#000000;stroke-width:1.96874297;stroke-linecap:butt;stroke-linejoin:miter;stroke-miterlimit:4;stroke-opacity:1;stroke-dasharray:none" />
  </g>
  <g
     transform="translate(-1.7041316,-55.005323)"
     id="layer1"
     style="display:inline">
    <path
       d="m 126.59627,376.69138 a 25.024845,25.024845 0 1 1 -50.049689,0 25.024845,25.024845 0 1 1 50.049689,0 z"
       transform="matrix(1.6088407,0,0,1.6088407,219.41171,-458.04966)"
       id="path3755"
       style="fill:#ffffff;fill-opacity:1;stroke:#000000;stroke-opacity:1" />
    <path
       d="m 126.59627,376.69138 a 25.024845,25.024845 0 1 1 -50.049689,0 25.024845,25.024845 0 1 1 50.049689,0 z"
       transform="matrix(1.6088407,0,0,1.6088407,-21.129544,-263.8778)"
       id="path3759"
       style="fill:#ffffff;fill-opacity:1;stroke:#000000;stroke-opacity:1" />
    <path
       d="m 126.59627,376.69138 a 25.024845,25.024845 0 1 1 -50.049689,0 25.024845,25.024845 0 1 1 50.049689,0 z"
       transform="matrix(1.6088407,0,0,1.6088407,-13.884334,86.790787)"
       id="path3765"
       style="fill:#ffffff;fill-opacity:1;stroke:#000000;stroke-opacity:1" />
    <path
       d="m 126.59627,376.69138 a 25.024845,25.024845 0 1 1 -50.049689,0 25.024845,25.024845 0 1 1 50.049689,0 z"
       transform="matrix(1.6088407,0,0,1.6088407,223.75885,266.47221)"
       id="path3769"
       style="fill:#ffffff;fill-opacity:1;stroke:#000000;stroke-opacity:1" />
    <path
       d="m 126.59627,376.69138 a 25.024845,25.024845 0 1 1 -50.049689,0 25.024845,25.024845 0 1 1 50.049689,0 z"
       transform="matrix(-1.6088407,0,0,1.6088407,880.96531,-379.80131)"
       id="path3773"
       style="fill:#ffffff;fill-opacity:1;stroke:#000000;stroke-opacity:1" />
    <path
       d="m 126.59627,376.69138 a 25.024845,25.024845 0 1 1 -50.049689,0 25.024845,25.024845 0 1 1 50.049689,0 z"
       transform="matrix(-1.6088407,0,0,1.6088407,731.71381,-458.04966)"
       id="path3775"
       style="fill:#000000;fill-opacity:1;stroke:#000000;stroke-opacity:1" />
    <path
       d="m 126.59627,376.69138 a 25.024845,25.024845 0 1 1 -50.049689,0 25.024845,25.024845 0 1 1 50.049689,0 z"
       transform="matrix(-1.6088407,0,0,1.6088407,1008.4812,-74.053071)"
       id="path3779"
       style="fill:#ffffff;fill-opacity:1;stroke:#000000;stroke-opacity:1" />
    <path
       d="m 126.59627,376.69138 a 25.024845,25.024845 0 1 1 -50.049689,0 25.024845,25.024845 0 1 1 50.049689,0 z"
       transform="matrix(-1.6088407,0,0,1.6088407,878.06723,196.91811)"
       id="path3783"
       style="fill:#ffffff;fill-opacity:1;stroke:#000000;stroke-opacity:1" />
    <text
       x="548.53937"
       y="163.66408"
       id="text3787"
       xml:space="preserve"
       style="font-size:55.12480545px;font-style:normal;font-variant:normal;font-weight:bold;font-stretch:normal;text-align:start;line-height:125%;letter-spacing:0px;word-spacing:0px;writing-mode:lr-tb;text-anchor:start;fill:#ffffff;fill-opacity:1;stroke:none;font-family:Sans;-inkscape-font-specification:Sans Bold"><tspan
         x="548.53937"
         y="163.66408"
         id="tspan3789">1</tspan></text>
    <text
       x="708.85876"
       y="163.92627"
       id="text3791"
       xml:space="preserve"
       style="font-size:39.37485886px;font-style:normal;font-weight:normal;line-height:125%;letter-spacing:0px;word-spacing:0px;fill:#000000;fill-opacity:1;stroke:none;font-family:Sans"><tspan
         x="708.85876"
         y="163.92627"
         id="tspan3793">1,3,2</tspan></text>
    <text
       x="326.31122"
       y="84.228851"
       id="text3795"
       xml:space="preserve"
       style="font-size:39.37485886px;font-style:normal;font-weight:normal;line-height:125%;letter-spacing:0px;word-spacing:0px;fill:#000000;fill-opacity:1;stroke:none;font-family:Sans"><tspan
         x="326.31122"
         y="84.228851"
         id="tspan3797">1,7,6</tspan></text>
    <text
       x="-2.6217196"
       y="730.50238"
       id="text3799"
       xml:space="preserve"
       style="font-size:39.37485886px;font-style:normal;font-weight:normal;line-height:125%;letter-spacing:0px;word-spacing:0px;fill:#000000;fill-opacity:1;stroke:none;font-family:Sans"><tspan
         x="-2.6217196"
         y="730.50238"
         id="tspan3801">1,5,4</tspan></text>
    <path
       d="m 126.59627,376.69138 a 25.024845,25.024845 0 1 1 -50.049689,0 25.024845,25.024845 0 1 1 50.049689,0 z"
       transform="matrix(-1.6088407,0,0,1.6088407,978.05126,-256.63258)"
       id="path3824"
       style="fill:#000000;fill-opacity:1;stroke:#000000;stroke-opacity:1" />
    <text
       x="797.25049"
       y="368.64169"
       id="text3826"
       xml:space="preserve"
       style="font-size:55.12480545px;font-style:normal;font-variant:normal;font-weight:bold;font-stretch:normal;text-align:start;line-height:125%;letter-spacing:0px;word-spacing:0px;writing-mode:lr-tb;text-anchor:start;fill:#ffffff;fill-opacity:1;stroke:none;font-family:Sans;-inkscape-font-specification:Sans Bold"><tspan
         x="797.25049"
         y="368.64169"
         id="tspan3828">2</tspan></text>
    <text
       x="897.23444"
       y="546.47382"
       id="text3833"
       xml:space="preserve"
       style="font-size:39.37485886px;font-style:normal;font-weight:normal;line-height:125%;letter-spacing:0px;word-spacing:0px;fill:#000000;fill-opacity:1;stroke:none;font-family:Sans"><tspan
         x="897.23444"
         y="546.47382"
         id="tspan3837">2,7,5</tspan></text>
    <path
       d="m 126.59627,376.69138 a 25.024845,25.024845 0 1 1 -50.049689,0 25.024845,25.024845 0 1 1 50.049689,0 z"
       transform="matrix(-1.6088407,0,0,1.6088407,730.26478,272.26838)"
       id="path3841"
       style="fill:#000000;fill-opacity:1;stroke:#000000;stroke-opacity:1" />
    <text
       x="549.46405"
       y="897.54266"
       id="text3843"
       xml:space="preserve"
       style="font-size:55.12480545px;font-style:normal;font-variant:normal;font-weight:bold;font-stretch:normal;text-align:start;line-height:125%;letter-spacing:0px;word-spacing:0px;writing-mode:lr-tb;text-anchor:start;fill:#ffffff;fill-opacity:1;stroke:none;font-family:Sans;-inkscape-font-specification:Sans Bold"><tspan
         x="549.46405"
         y="897.54266"
         id="tspan3845">3</tspan></text>
    <text
       x="695.81732"
       y="891.34625"
       id="text3849"
       xml:space="preserve"
       style="font-size:39.37485886px;font-style:normal;font-weight:normal;line-height:125%;letter-spacing:0px;word-spacing:0px;fill:#000000;fill-opacity:1;stroke:none;font-family:Sans"><tspan
         x="695.81732"
         y="891.34625"
         id="tspan3851">3,7,4</tspan></text>
    <text
       x="326.31122"
       y="960.90033"
       id="text3853"
       xml:space="preserve"
       style="font-size:39.37485886px;font-style:normal;font-weight:normal;line-height:125%;letter-spacing:0px;word-spacing:0px;fill:#000000;fill-opacity:1;stroke:none;font-family:Sans"><tspan
         x="326.31122"
         y="960.90033"
         id="tspan3855">3,5,6</tspan></text>
    <path
       d="m 126.59627,376.69138 a 25.024845,25.024845 0 1 1 -50.049689,0 25.024845,25.024845 0 1 1 50.049689,0 z"
       transform="matrix(-1.6088407,0,0,1.6088407,982.39839,70.851307)"
       id="path3857"
       style="fill:#000000;fill-opacity:1;stroke:#000000;stroke-opacity:1" />
    <text
       x="801.59766"
       y="696.12555"
       id="text3859"
       xml:space="preserve"
       style="font-size:55.12480545px;font-style:normal;font-variant:normal;font-weight:bold;font-stretch:normal;text-align:start;line-height:125%;letter-spacing:0px;word-spacing:0px;writing-mode:lr-tb;text-anchor:start;fill:#ffffff;fill-opacity:1;stroke:none;font-family:Sans;-inkscape-font-specification:Sans Bold"><tspan
         x="801.59766"
         y="696.12555"
         id="tspan3861">7</tspan></text>
    <path
       d="m 126.59627,376.69138 a 25.024845,25.024845 0 1 1 -50.049689,0 25.024845,25.024845 0 1 1 50.049689,0 z"
       transform="matrix(-1.6088407,0,0,1.6088407,404.22993,-389.9446)"
       id="path3865"
       style="fill:#000000;fill-opacity:1;stroke:#000000;stroke-opacity:1" />
    <text
       x="221.05545"
       y="234.14282"
       id="text3867"
       xml:space="preserve"
       style="font-size:55.12480545px;font-style:normal;font-variant:normal;font-weight:bold;font-stretch:normal;text-align:start;line-height:125%;letter-spacing:0px;word-spacing:0px;writing-mode:lr-tb;text-anchor:start;fill:#ffffff;fill-opacity:1;stroke:none;font-family:Sans;-inkscape-font-specification:Sans Bold"><tspan
         x="221.05545"
         y="234.14282"
         id="tspan3869">6</tspan></text>
    <path
       d="m 126.59627,376.69138 a 25.024845,25.024845 0 1 1 -50.049689,0 25.024845,25.024845 0 1 1 50.049689,0 z"
       transform="matrix(-1.6088407,0,0,1.6088407,407.12802,199.81619)"
       id="path3873"
       style="fill:#000000;fill-opacity:1;stroke:#000000;stroke-opacity:1" />
    <text
       x="226.32729"
       y="826.27734"
       id="text3875"
       xml:space="preserve"
       style="font-size:55.12480545px;font-style:normal;font-variant:normal;font-weight:bold;font-stretch:normal;text-align:start;line-height:125%;letter-spacing:0px;word-spacing:0px;writing-mode:lr-tb;text-anchor:start;fill:#ffffff;fill-opacity:1;stroke:none;font-family:Sans;-inkscape-font-specification:Sans Bold"><tspan
         x="226.32729"
         y="826.27734"
         id="tspan3877">5</tspan></text>
    <path
       d="m 126.59627,376.69138 a 25.024845,25.024845 0 1 1 -50.049689,0 25.024845,25.024845 0 1 1 50.049689,0 z"
       transform="matrix(-1.6088407,0,0,1.6088407,265.12174,-91.441606)"
       id="path3883"
       style="fill:#000000;fill-opacity:1;stroke:#000000;stroke-opacity:1" />
    <text
       x="81.947296"
       y="532.64587"
       id="text3885"
       xml:space="preserve"
       style="font-size:55.12480545px;font-style:normal;font-variant:normal;font-weight:bold;font-stretch:normal;text-align:start;line-height:125%;letter-spacing:0px;word-spacing:0px;writing-mode:lr-tb;text-anchor:start;fill:#ffffff;fill-opacity:1;stroke:none;font-family:Sans;-inkscape-font-specification:Sans Bold"><tspan
         x="81.947296"
         y="532.64587"
         id="tspan3887">4</tspan></text>
    <text
       x="4.6235027"
       y="287.09497"
       id="text3889"
       xml:space="preserve"
       style="font-size:39.37485886px;font-style:normal;font-weight:normal;line-height:125%;letter-spacing:0px;word-spacing:0px;fill:#000000;fill-opacity:1;stroke:none;font-family:Sans"><tspan
         x="4.6235027"
         y="287.09497"
         id="tspan3891">2,6,4</tspan></text>
    <path
       d="m 484.26168,59.996933 0,905.567017"
       id="path3914"
       style="fill:none;stroke:#ff0000;stroke-width:1.47655725;stroke-linecap:butt;stroke-linejoin:miter;stroke-miterlimit:4;stroke-opacity:1;stroke-dasharray:17.71868693, 17.71868693;stroke-dashoffset:0" />
  </g>
</svg>
